<?xml version="1.0" standalone="no"?>
<!DOCTYPE svg PUBLIC "-//W3C//DTD SVG 20010904//EN"
 "http://www.w3.org/TR/2001/REC-SVG-20010904/DTD/svg10.dtd">
<svg version="1.0" xmlns="http://www.w3.org/2000/svg"
 width="525.000000pt" height="519.000000pt" viewBox="0 0 525.000000 519.000000"
 preserveAspectRatio="xMidYMid meet">

<g transform="translate(0.000000,519.000000) scale(0.100000,-0.100000)"
fill="#000000" stroke="none">
<path d="M0 2595 l0 -2595 2625 0 2625 0 0 2595 0 2595 -2625 0 -2625 0 0
-2595z m2715 1960 c78 -20 169 -65 225 -112 133 -109 223 -287 231 -455 2 -38
8 -51 29 -67 77 -56 74 -342 -7 -581 -59 -178 -156 -326 -229 -350 -32 -11
-40 -22 -69 -84 -40 -89 -74 -192 -76 -231 -1 -16 2 -83 6 -147 l8 -117 -33
-31 c-90 -84 -334 -79 -414 9 -17 19 -18 32 -12 174 l8 154 -37 88 c-56 136
-83 185 -103 185 -72 0 -182 165 -245 366 -74 236 -76 504 -3 561 19 15 25 32
30 88 9 85 47 201 89 274 39 69 146 179 211 216 114 67 271 90 391 60z m-463
-2602 c66 -30 143 -105 175 -172 28 -55 28 -58 28 -251 0 -184 -1 -198 -23
-242 -38 -75 -96 -134 -170 -170 l-67 -33 -205 0 -205 0 -67 33 c-74 36 -132
95 -170 170 -22 44 -23 58 -23 242 0 223 7 249 85 334 95 103 140 116 395 113
182 -2 204 -4 247 -24z m-1562 -159 l0 -176 33 -33 c42 -42 79 -48 273 -43
128 3 154 6 184 24 55 32 60 50 60 237 l0 167 81 0 80 0 -3 -192 c-3 -182 -4
-196 -28 -241 -48 -94 -136 -147 -257 -155 l-73 -5 0 -143 0 -144 -80 0 -80 0
0 144 0 143 -68 5 c-119 9 -215 69 -258 163 -22 47 -24 62 -24 238 l0 187 80
0 80 0 0 -176z m2085 -91 c26 -148 51 -276 54 -285 4 -11 45 46 136 190 187
297 181 297 370 -5 l129 -207 48 264 c26 146 50 275 53 288 5 21 11 22 85 22
44 0 80 -3 80 -8 0 -4 -33 -194 -74 -422 -71 -391 -76 -416 -101 -437 -33 -29
-67 -29 -98 0 -14 12 -84 121 -157 242 -73 121 -138 226 -144 232 -9 10 -45
-42 -161 -232 -164 -270 -176 -282 -240 -252 -18 9 -36 24 -39 34 -3 10 -37
196 -76 413 -38 217 -72 403 -74 413 -4 15 5 17 78 17 l83 0 48 -267z m1255
-93 l0 -360 320 0 320 0 0 -80 0 -81 -379 3 c-356 3 -380 4 -400 22 -21 19
-21 25 -21 438 l0 418 80 0 80 0 0 -360z m-950 -835 c0 -8 -7 -15 -15 -15 -12
0 -35 -28 -35 -44 0 -3 11 -6 25 -6 16 0 25 -6 25 -15 0 -9 -9 -15 -25 -15
-25 0 -25 -1 -25 -80 0 -64 -3 -80 -15 -80 -12 0 -15 16 -15 80 0 64 -3 80
-15 80 -8 0 -15 7 -15 15 0 8 6 15 14 15 8 0 17 13 21 30 4 16 14 34 23 40 25
14 52 12 52 -5z m660 -120 c0 -113 -2 -135 -15 -135 -13 0 -15 22 -15 135 0
113 2 135 15 135 13 0 15 -22 15 -135z m-2490 105 c0 -13 -7 -20 -20 -20 -13
0 -20 7 -20 20 0 13 7 20 20 20 13 0 20 -7 20 -20z m1520 -15 c0 -28 4 -35 20
-35 11 0 20 -7 20 -15 0 -8 -9 -15 -20 -15 -18 0 -20 -7 -20 -80 0 -64 -3 -80
-15 -80 -12 0 -15 16 -15 80 0 73 -2 80 -20 80 -11 0 -20 7 -20 15 0 8 9 15
20 15 16 0 20 7 20 35 0 24 5 35 15 35 10 0 15 -11 15 -35z m140 15 c0 -13 -7
-20 -20 -20 -13 0 -20 7 -20 20 0 13 7 20 20 20 13 0 20 -7 20 -20z m-1056
-23 c19 -26 20 -30 5 -56 -15 -25 -15 -29 2 -50 27 -33 24 -66 -7 -90 -22 -17
-41 -21 -105 -21 l-79 0 0 125 0 126 81 -3 c77 -3 83 -5 103 -31z m2126 -57
c0 -71 -3 -90 -14 -90 -11 0 -15 20 -18 90 -3 80 -1 90 15 90 15 0 17 -11 17
-90z m-2730 -65 c0 -88 -1 -95 -20 -95 -19 0 -20 7 -20 95 0 88 1 95 20 95 19
0 20 -7 20 -95z m204 79 c9 -8 16 -20 16 -25 0 -14 -26 -11 -40 6 -16 19 -54
19 -70 0 -17 -20 -6 -31 44 -44 73 -18 94 -53 56 -91 -36 -36 -140 -17 -140
26 0 19 20 18 35 -3 14 -19 74 -20 86 -1 11 18 -6 35 -43 42 -69 14 -97 55
-62 90 21 21 97 21 118 0z m651 -9 c16 -15 25 -36 25 -55 l0 -30 -75 0 c-59 0
-75 -3 -75 -15 0 -32 77 -48 100 -20 14 17 40 20 40 5 0 -39 -84 -65 -131 -40
-51 28 -60 111 -17 157 31 33 100 32 133 -2z m226 15 c13 -7 19 -7 19 0 0 5 7
10 15 10 12 0 15 -17 15 -95 0 -78 -3 -95 -15 -95 -8 0 -15 5 -15 10 0 7 -6 7
-19 0 -59 -31 -141 15 -141 80 0 35 23 86 42 93 23 9 79 7 99 -3z m161 -61 c4
-76 13 -89 60 -89 36 0 48 25 48 99 0 48 3 61 15 61 12 0 15 -17 15 -95 0 -78
-3 -95 -15 -95 -8 0 -15 4 -15 9 0 5 -13 4 -30 -2 -38 -14 -80 0 -97 33 -18
36 -17 150 1 150 10 0 15 -19 18 -71z m418 -24 c0 -78 -3 -95 -15 -95 -12 0
-15 17 -15 95 0 78 3 95 15 95 12 0 15 -17 15 -95z m385 63 c23 -27 26 -39 22
-72 -11 -83 -100 -115 -158 -57 -33 33 -38 75 -14 121 17 34 27 38 82 39 35 1
45 -4 68 -31z m130 -43 l21 -70 22 73 c17 54 27 72 40 72 14 0 24 -19 42 -72
l23 -73 21 73 c15 53 25 72 38 72 14 0 15 -5 8 -27 -48 -154 -52 -163 -69
-163 -14 0 -23 16 -36 63 -9 34 -20 66 -23 71 -2 5 -15 -22 -26 -60 -17 -54
-26 -69 -41 -69 -15 0 -24 18 -47 90 -15 50 -28 91 -28 93 0 2 8 2 17 0 11 -2
24 -27 38 -73z m555 -95 c0 -13 -7 -20 -20 -20 -13 0 -20 7 -20 20 0 13 7 20
20 20 13 0 20 -7 20 -20z"/>
<path d="M2275 4260 c-50 -26 -100 -74 -120 -116 -8 -17 -15 -58 -15 -91 0
-145 127 -283 387 -418 l70 -37 64 32 c290 146 432 320 389 474 -29 104 -119
176 -223 176 -62 0 -105 -19 -160 -69 -52 -48 -83 -52 -118 -15 -70 75 -195
105 -274 64z m181 -65 c48 -28 84 -91 84 -145 0 -120 -131 -203 -243 -156 -72
30 -120 124 -99 195 35 117 155 166 258 106z m472 -4 c94 -66 94 -216 0 -283
-45 -32 -153 -33 -194 -2 -61 45 -85 109 -70 188 8 43 49 94 91 112 45 21 134
13 173 -15z m-281 -261 c9 -19 9 -31 -3 -59 -22 -53 -39 -68 -59 -51 -22 18
-45 64 -45 90 0 12 12 32 27 46 23 22 29 23 47 11 12 -8 26 -25 33 -37z"/>
<path d="M2293 4170 c-46 -28 -67 -65 -67 -120 0 -83 59 -140 146 -140 52 0
97 29 123 81 31 59 4 147 -55 182 -38 23 -107 22 -147 -3z m112 -84 c16 -16
22 -31 18 -45 -6 -23 -39 -51 -60 -51 -22 0 -53 39 -53 65 0 23 2 24 20 13 27
-17 50 3 30 27 -22 26 17 19 45 -9z"/>
<path d="M2753 4170 c-87 -52 -83 -198 6 -245 67 -34 150 -12 192 51 40 61 13
166 -51 199 -41 21 -109 19 -147 -5z m116 -86 c26 -33 26 -37 -2 -70 -19 -22
-29 -26 -51 -20 -30 7 -52 46 -41 73 5 12 9 14 12 6 6 -17 43 -17 43 0 0 7 -5
18 -12 25 -9 9 -7 12 9 12 12 0 31 -12 42 -26z"/>
<path d="M2286 3598 c-32 -45 -13 -209 41 -368 53 -153 210 -472 244 -493 9
-5 27 -7 42 -3 20 5 38 30 85 118 130 244 205 445 222 596 18 164 -25 215
-115 136 -99 -88 -188 -154 -206 -154 -21 0 -94 52 -192 139 -64 56 -97 64
-121 29z"/>
<path d="M1805 1807 c-53 -22 -84 -48 -105 -91 -17 -37 -20 -62 -20 -185 0
-153 6 -178 58 -234 40 -42 107 -57 252 -57 145 0 212 15 252 57 52 56 58 81
58 234 0 167 -13 208 -82 255 -41 29 -42 29 -212 31 -116 2 -181 -2 -201 -10z"/>
<path d="M1700 700 l0 -40 54 0 c45 0 58 4 70 22 11 15 12 26 5 40 -8 14 -22
18 -69 18 l-60 0 0 -40z"/>
<path d="M1700 590 l0 -40 56 0 c63 0 94 13 94 38 0 31 -22 42 -87 42 l-63 0
0 -40z"/>
<path d="M2003 675 c-42 -30 -29 -45 37 -45 62 0 69 5 48 33 -19 24 -60 30
-85 12z"/>
<path d="M2245 665 c-46 -45 -22 -115 40 -115 63 0 89 80 39 119 -34 27 -50
26 -79 -4z"/>
<path d="M3186 669 c-50 -39 -24 -119 38 -119 38 0 53 14 62 58 5 25 1 36 -19
56 -32 31 -46 32 -81 5z"/>
</g>
</svg>
